<svg id="a152734c-2baa-4c22-8c17-973e83024325" data-name="图层 1" xmlns="http://www.w3.org/2000/svg" viewBox="0 0 126.4 126.4"><defs><style>.aa7f7445-32a6-4b4d-a062-5e4bfec4d277{fill:#009fe8;}.ebb7bc6e-c201-4838-bf2c-a4f8b0290f23{fill:#fff;}</style></defs><rect class="aa7f7445-32a6-4b4d-a062-5e4bfec4d277" width="126.4" height="126.4" rx="14.4"/><rect class="ebb7bc6e-c201-4838-bf2c-a4f8b0290f23" x="6.63" y="36.69" width="112.26" height="52.29"/><path class="aa7f7445-32a6-4b4d-a062-5e4bfec4d277" d="M100.73,59.11,88,36.32h30.73a.14.14,0,0,1,.11.23Z"/><polygon class="aa7f7445-32a6-4b4d-a062-5e4bfec4d277" points="98.12 66.76 81.03 89.44 109.46 89.44 98.12 66.76"/><polygon class="aa7f7445-32a6-4b4d-a062-5e4bfec4d277" points="76.65 80.21 59.07 80.21 83.31 46.19 91.56 60.36 76.65 80.21"/><path class="aa7f7445-32a6-4b4d-a062-5e4bfec4d277" d="M18.15,76.76,6.59,89.18a.15.15,0,0,1-.25-.1V45.87h37Z"/><polygon class="aa7f7445-32a6-4b4d-a062-5e4bfec4d277" points="47.56 80.23 29.51 80.66 55.15 46.19 71.8 46.19 47.56 80.23"/><path class="aa7f7445-32a6-4b4d-a062-5e4bfec4d277" d="M106,66.55,118.76,89l.26-.07V50Z"/><polygon class="aa7f7445-32a6-4b4d-a062-5e4bfec4d277" points="18.52 45.87 6.34 45.87 6.34 36.32 24.07 36.32 18.52 45.87"/><rect class="aa7f7445-32a6-4b4d-a062-5e4bfec4d277" x="6.63" y="45.17" width="11.89" height="2.09"/></svg>